<?xml version="1.0" standalone="no"?>
<!DOCTYPE svg PUBLIC "-//W3C//DTD SVG 20010904//EN"
 "http://www.w3.org/TR/2001/REC-SVG-20010904/DTD/svg10.dtd">
<svg version="1.0" xmlns="http://www.w3.org/2000/svg"
 width="550.000000pt" height="500.000000pt" viewBox="0 0 550.000000 500.000000"
 preserveAspectRatio="xMidYMid meet">

<g transform="translate(0.000000,500.000000) scale(0.100000,-0.100000)"
fill="#000000" stroke="none">
<path d="M0 2500 l0 -2500 2750 0 2750 0 0 2500 0 2500 -2750 0 -2750 0 0
-2500z m2982 493 c28 -24 48 -74 48 -120 0 -53 -34 -118 -70 -133 -17 -7 -30
-14 -30 -16 0 -1 9 -18 20 -37 l20 -34 -56 -7 c-67 -8 -154 -51 -207 -103 -38
-36 -39 -36 -51 20 -6 23 -9 26 -26 17 -82 -44 -186 53 -150 139 19 46 69 90
115 102 74 19 91 30 136 89 62 82 118 113 192 105 21 -2 48 -12 59 -22z m1592
-179 c17 -6 21 -41 10 -82 -5 -15 -12 -21 -22 -17 -8 3 -31 0 -49 -6 -37 -12
-63 -55 -63 -104 0 -24 3 -25 55 -25 l55 0 0 -44 0 -45 -52 -3 -53 -3 -3 -212
-2 -213 -65 0 -65 0 0 215 0 215 -31 0 c-29 0 -30 1 -27 43 3 38 6 42 31 45
19 2 27 9 27 22 0 92 56 186 122 207 38 12 109 16 132 7z m-2534 -379 l0 -375
-50 0 c-27 0 -50 4 -50 9 0 5 -4 21 -10 35 l-9 26 -26 -26 c-51 -51 -141 -69
-208 -40 -37 15 -94 76 -113 121 -20 50 -27 146 -14 208 32 158 177 242 298
172 l42 -24 0 128 c0 70 3 131 7 134 3 4 35 7 70 7 l63 0 0 -375z m1270 230
l0 -144 52 32 c43 27 61 32 114 32 77 0 108 -20 144 -90 23 -47 25 -62 28
-242 l4 -193 -66 0 -66 0 0 158 c0 176 -9 222 -48 252 -32 26 -75 22 -127 -10
l-35 -22 0 -189 0 -189 -65 0 -65 0 0 375 0 375 65 0 65 0 0 -145z m-2483 125
c73 -16 77 -20 69 -75 -7 -45 -9 -47 -34 -41 -15 4 -60 9 -100 13 -90 7 -146
-12 -195 -66 -46 -52 -61 -100 -62 -201 0 -74 4 -93 28 -143 41 -82 86 -111
184 -115 40 -3 94 1 120 7 25 7 47 11 48 9 2 -2 5 -25 7 -52 l3 -49 -50 -13
c-67 -18 -190 -17 -252 1 -159 47 -251 220 -222 419 32 231 220 357 456 306z
m495 -216 c51 -17 109 -67 135 -117 21 -40 29 -177 14 -233 -35 -130 -183
-204 -329 -163 -70 19 -145 97 -162 168 -16 67 -9 175 15 221 59 118 195 169
327 124z m1146 1 c43 -19 79 -50 98 -87 21 -41 37 -126 30 -164 l-7 -34 -164
0 c-161 0 -165 -1 -165 -21 0 -38 31 -87 65 -103 37 -18 142 -21 194 -6 19 5
36 8 38 6 2 -2 5 -23 6 -47 l2 -43 -50 -12 c-71 -17 -175 -17 -224 1 -66 23
-98 51 -128 113 -51 104 -33 262 40 341 57 62 184 89 265 56z m595 0 c17 -7
22 -40 11 -81 -5 -19 -10 -21 -42 -13 -143 33 -232 -29 -232 -161 1 -131 103
-199 239 -160 19 5 36 9 37 7 1 -1 4 -22 6 -47 l3 -45 -45 -12 c-64 -16 -160
-16 -211 2 -63 23 -104 58 -133 117 -36 72 -37 189 -2 263 49 105 130 148 266
141 47 -2 93 -7 103 -11z m1015 0 c44 -19 79 -50 98 -88 21 -39 37 -133 29
-168 l-7 -29 -164 0 c-160 0 -164 -1 -164 -21 0 -36 31 -89 61 -104 32 -17
147 -20 198 -5 19 5 36 8 38 6 2 -2 5 -23 6 -47 l2 -43 -50 -12 c-71 -17 -175
-17 -224 1 -63 22 -94 48 -126 107 -26 47 -30 63 -30 138 0 132 42 210 140
256 59 28 138 31 193 9z m838 4 c40 -10 44 -14 44 -43 0 -52 -11 -61 -63 -47
-89 22 -147 5 -147 -43 0 -30 20 -46 107 -86 91 -41 124 -75 130 -133 7 -59
-24 -116 -81 -148 -35 -20 -55 -24 -131 -24 -103 0 -168 18 -161 43 2 10 7 29
10 43 l6 26 57 -13 c114 -27 168 -12 168 46 0 34 -3 36 -82 75 -98 48 -140 86
-149 133 -8 43 9 102 39 130 50 47 159 64 253 41z"/>
<path d="M1747 2470 c-43 -34 -57 -71 -57 -150 0 -86 24 -141 70 -160 38 -16
87 -7 117 22 22 20 23 29 23 143 0 140 -7 154 -82 162 -34 4 -49 0 -71 -17z"/>
<path d="M1169 2477 c-42 -28 -59 -62 -66 -130 -14 -140 70 -235 171 -193 53
22 71 64 71 166 0 98 -18 140 -71 165 -44 21 -65 19 -105 -8z"/>
<path d="M2315 2478 c-27 -21 -55 -73 -55 -103 0 -13 18 -15 110 -15 109 0
110 0 110 24 0 39 -20 84 -45 100 -34 23 -87 20 -120 -6z"/>
<path d="M3925 2478 c-27 -21 -55 -73 -55 -103 0 -13 18 -15 110 -15 122 0
120 -2 100 71 -19 67 -99 91 -155 47z"/>
</g>
</svg>
